name ./resultDataOpenSim/trcMotMarkerGrf/sub06/grf-13-04.mot
datacolumns 19
datarows 27
range 1.06400000 1.16800000
endheader

                time	     ground_force_vx	     ground_force_vy	     ground_force_vz	     ground_force_px	     ground_force_py	     ground_force_pz	   l_ground_force_vx	   l_ground_force_vy	   l_ground_force_vz	   l_ground_force_px	   l_ground_force_py	   l_ground_force_pz	     ground_torque_x	     ground_torque_y	     ground_torque_z	   l_ground_torque_x	   l_ground_torque_y	   l_ground_torque_z	
          1.06400000	          0.00000000	          0.00000000	          0.00000000	          0.00000000	          0.00000000	          0.00000000	         57.65366604	        532.22851833	         14.41270844	          0.12328327	         -0.05000121	         -0.04144381	          0.00000000	          0.00000000	          0.00000000	          0.00000000	         -1.39113597	          0.00000000	
          1.06800000	          0.00000000	          0.00000000	          0.00000000	          0.00000000	          0.00000000	          0.00000000	         62.33096783	        548.59748850	         14.89296862	          0.12386898	         -0.05000132	         -0.04110587	          0.00000000	          0.00000000	          0.00000000	          0.00000000	         -1.51363172	          0.00000000	
          1.07200000	          0.00000000	          0.00000000	          0.00000000	          0.00000000	          0.00000000	          0.00000000	         67.34631759	        565.46246415	         15.36470312	          0.12442279	         -0.05000200	         -0.04075468	          0.00000000	          0.00000000	          0.00000000	          0.00000000	         -1.64561202	          0.00000000	
          1.07600000	          0.00000000	          0.00000000	          0.00000000	          0.00000000	          0.00000000	          0.00000000	         72.67497485	        582.87193128	         15.81832650	          0.12495125	         -0.05000200	         -0.04038749	          0.00000000	          0.00000000	          0.00000000	          0.00000000	         -1.78855246	          0.00000000	
          1.08000000	          0.00000000	          0.00000000	          0.00000000	          0.00000000	          0.00000000	          0.00000000	         78.25438796	        600.81182210	         16.23352874	          0.12548581	         -0.05000200	         -0.04000404	          0.00000000	          0.00000000	          0.00000000	          0.00000000	         -1.94263820	          0.00000000	
          1.08400000	          0.00000000	          0.00000000	          0.00000000	          0.00000000	          0.00000000	          0.00000000	         83.99089499	        619.20443500	         16.60303633	          0.12605082	         -0.05000200	         -0.03961708	          0.00000000	          0.00000000	          0.00000000	          0.00000000	         -2.10610253	          0.00000000	
          1.08800000	          0.00000000	          0.00000000	          0.00000000	          0.00000000	          0.00000000	          0.00000000	         89.78723287	        637.91071071	         16.93473674	          0.12664930	         -0.05000200	         -0.03923969	          0.00000000	          0.00000000	          0.00000000	          0.00000000	         -2.27507788	          0.00000000	
          1.09200000	          0.00000000	          0.00000000	          0.00000000	          0.00000000	          0.00000000	          0.00000000	         95.56770117	        656.71559505	         17.24950084	          0.12727180	         -0.05000200	         -0.03887097	          0.00000000	          0.00000000	          0.00000000	          0.00000000	         -2.44419291	          0.00000000	
          1.09600000	          0.00000000	          0.00000000	          0.00000000	          0.00000000	          0.00000000	          0.00000000	        101.29189732	        675.31352862	         17.57958116	          0.12790520	         -0.05000200	         -0.03850594	          0.00000000	          0.00000000	          0.00000000	          0.00000000	         -2.60776851	          0.00000000	
          1.10000000	          0.00000000	          0.00000000	          0.00000000	          0.00000000	          0.00000000	          0.00000000	        106.97205286	        693.34288368	         17.94286430	          0.12856065	         -0.05000200	         -0.03813863	          0.00000000	          0.00000000	          0.00000000	          0.00000000	         -2.76107842	          0.00000000	
          1.10400000	          0.00000000	          0.00000000	          0.00000000	          0.00000000	          0.00000000	          0.00000000	        112.66691632	        710.43949417	         18.30529234	          0.12927353	         -0.05000200	         -0.03775762	          0.00000000	          0.00000000	          0.00000000	          0.00000000	         -2.90104077	          0.00000000	
          1.10800000	          0.00000000	          0.00000000	          0.00000000	          0.00000000	          0.00000000	          0.00000000	        118.43477282	        726.26092947	         18.59075153	          0.13006510	         -0.05000200	         -0.03735235	          0.00000000	          0.00000000	          0.00000000	          0.00000000	         -3.02603635	          0.00000000	
          1.11200000	          0.00000000	          0.00000000	          0.00000000	          0.00000000	          0.00000000	          0.00000000	        124.29080391	        740.50848934	         18.74463834	          0.13092355	         -0.05000200	         -0.03692780	          0.00000000	          0.00000000	          0.00000000	          0.00000000	         -3.13510592	          0.00000000	
          1.11600000	          0.00000000	          0.00000000	          0.00000000	          0.00000000	          0.00000000	          0.00000000	        130.20755860	        752.94753558	         18.77529684	          0.13180886	         -0.05000200	         -0.03649916	          0.00000000	          0.00000000	          0.00000000	          0.00000000	         -3.22712330	          0.00000000	
          1.12000000	          0.00000000	          0.00000000	          0.00000000	          0.00000000	          0.00000000	          0.00000000	        136.14559142	        763.38103943	         18.73132882	          0.13266770	         -0.05000120	         -0.03607835	          0.00000000	          0.00000000	          0.00000000	          0.00000000	         -3.30043310	          0.00000000	
          1.12400000	          0.00000000	          0.00000000	          0.00000000	          0.00000000	          0.00000000	          0.00000000	        142.07712109	        771.59494765	         18.65420574	          0.13346132	         -0.05000100	         -0.03566668	          0.00000000	          0.00000000	          0.00000000	          0.00000000	         -3.35305927	          0.00000000	
          1.12800000	          0.00000000	          0.00000000	          0.00000000	          0.00000000	          0.00000000	          0.00000000	        147.99136324	        777.34471808	         18.55672983	          0.13418096	         -0.05000100	         -0.03524869	          0.00000000	          0.00000000	          0.00000000	          0.00000000	         -3.38324299	          0.00000000	
          1.13200000	          0.00000000	          0.00000000	          0.00000000	          0.00000000	          0.00000000	          0.00000000	        153.88828689	        780.38416640	         18.43253744	          0.13484492	         -0.05000100	         -0.03479565	          0.00000000	          0.00000000	          0.00000000	          0.00000000	         -3.38994288	          0.00000000	
          1.13600000	          0.00000000	          0.00000000	          0.00000000	          0.00000000	          0.00000000	          0.00000000	        159.75408985	        780.48021223	         18.26912606	          0.13549182	         -0.05000100	         -0.03428766	          0.00000000	          0.00000000	          0.00000000	          0.00000000	         -3.37303606	          0.00000000	
          1.14000000	          0.00000000	          0.00000000	          0.00000000	          0.00000000	          0.00000000	          0.00000000	        165.52642707	        777.42783149	         18.05247753	          0.13615110	         -0.05000050	         -0.03372625	          0.00000000	          0.00000000	          0.00000000	          0.00000000	         -3.33315904	          0.00000000	
          1.14400000	          0.00000000	          0.00000000	          0.00000000	          0.00000000	          0.00000000	          0.00000000	        171.08192791	        771.10282213	         17.77039887	          0.13681971	         -0.05000007	         -0.03313071	          0.00000000	          0.00000000	          0.00000000	          0.00000000	         -3.27131616	          0.00000000	
          1.14800000	          0.00000000	          0.00000000	          0.00000000	          0.00000000	          0.00000000	          0.00000000	        176.26404953	        761.50555898	         17.41636159	          0.13747737	         -0.05000000	         -0.03253071	          0.00000000	          0.00000000	          0.00000000	          0.00000000	         -3.18852867	          0.00000000	
          1.15200000	          0.00000000	          0.00000000	          0.00000000	          0.00000000	          0.00000000	          0.00000000	        180.92439393	        748.73867640	         16.98793298	          0.13810380	         -0.05000000	         -0.03195584	          0.00000000	          0.00000000	          0.00000000	          0.00000000	         -3.08582072	          0.00000000	
          1.15600000	          0.00000000	          0.00000000	          0.00000000	          0.00000000	          0.00000000	          0.00000000	        184.93650823	        732.92173038	         16.48075305	          0.13869486	         -0.05000000	         -0.03142560	          0.00000000	          0.00000000	          0.00000000	          0.00000000	         -2.96463553	          0.00000000	
          1.16000000	          0.00000000	          0.00000000	          0.00000000	          0.00000000	          0.00000000	          0.00000000	        188.18508750	        714.09667782	         15.89072284	          0.13927581	         -0.04999960	         -0.03094721	          0.00000000	          0.00000000	          0.00000000	          0.00000000	         -2.82744310	          0.00000000	
          1.16400000	          0.00000000	          0.00000000	          0.00000000	          0.00000000	          0.00000000	          0.00000000	        190.55328442	        692.19858530	         15.22337569	          0.13988575	         -0.04999900	         -0.03051616	          0.00000000	          0.00000000	          0.00000000	          0.00000000	         -2.67812194	          0.00000000	
          1.16800000	          0.00000000	          0.00000000	          0.00000000	          0.00000000	          0.00000000	          0.00000000	        191.90506686	        667.09719404	         14.49076833	          0.14054439	         -0.04999900	         -0.03012191	          0.00000000	          0.00000000	          0.00000000	          0.00000000	         -2.52178978	          0.00000000	
